<svg xmlns="http://www.w3.org/2000/svg" viewBox="0 0 24 24" class="ae c0 ds dt du bk fx fy fz">
    <path fill="#A7AAB0" fill-rule="evenodd" d="M22.0001063,5.98448999 C22.0002481,5.99422236 22.0002479,6.00395091 22.0001063,6.01367238 L22.0001063,18.5 C22.0001063,19.3284271 21.3285334,20 20.5001063,20 L3.50010627,20 C2.67167915,20 2.00010627,19.3284271 2.00010627,18.5 L2.00010627,6.01367238 C1.99996468,6.00395091 1.99996447,5.99422236 2.00010627,5.98448999 L2.00010627,5.5 C2.00010627,4.67157288 2.67167915,4 3.50010627,4 L20.5001063,4 C21.3285334,4 22.0001063,4.67157288 22.0001063,5.5 L22.0001063,5.98448994 Z M4.80288191,6 L12.0001063,10.7981496 L19.1973306,6 L4.80288191,6 Z M20.0001063,7.86851709 L12.5548065,12.8320503 C12.2189071,13.0559832 11.7813055,13.0559832 11.4454061,12.8320503 L4.00010627,7.86851709 L4.00010627,18 L20.0001063,18 L20.0001063,7.86851709 Z"/>
</svg>
